<?xml version="1.0" encoding="UTF-8"?>
<svg xmlns="http://www.w3.org/2000/svg" id="Layer_1" data-name="Layer 1" viewBox="0 0 512 512" width="512" height="512"><path d="M178.2,192h150a6,6,0,0,0,0-12h-150a6,6,0,0,0,0,12Z"/><path d="M117.614,184.889l-13.331,12.745-5.407-5.407a6,6,0,1,0-8.484,8.485l9.555,9.556a6,6,0,0,0,8.389.094l17.571-16.8a6,6,0,1,0-8.293-8.673Z"/><path d="M108.2,156.9a40.722,40.722,0,1,0,40.722,40.721A40.767,40.767,0,0,0,108.2,156.9Zm0,69.443a28.722,28.722,0,1,1,28.722-28.722A28.754,28.754,0,0,1,108.2,226.347Z"/><path d="M178.2,292h150a6,6,0,0,0,0-12h-150a6,6,0,0,0,0,12Z"/><path d="M117.614,284.889l-13.331,12.745-5.407-5.407a6,6,0,1,0-8.484,8.485l9.555,9.556a6,6,0,0,0,8.389.094l17.571-16.8a6,6,0,1,0-8.293-8.673Z"/><path d="M108.2,256.9a40.722,40.722,0,1,0,40.722,40.721A40.767,40.767,0,0,0,108.2,256.9Zm0,69.443a28.722,28.722,0,1,1,28.722-28.722A28.754,28.754,0,0,1,108.2,326.347Z"/><path d="M117.614,384.889l-13.331,12.745-5.407-5.407a6,6,0,1,0-8.484,8.485l9.555,9.556a6,6,0,0,0,8.389.094l17.571-16.8a6,6,0,1,0-8.293-8.673Z"/><path d="M108.2,356.9a40.722,40.722,0,1,0,40.722,40.721A40.767,40.767,0,0,0,108.2,356.9Zm0,69.443a28.722,28.722,0,1,1,28.722-28.722A28.754,28.754,0,0,1,108.2,426.347Z"/><path d="M178.2,212h80a6,6,0,0,0,0-12h-80a6,6,0,0,0,0,12Z"/><path d="M178.2,312h80a6,6,0,0,0,0-12h-80a6,6,0,0,0,0,12Z"/><path d="M59,94.1a6,6,0,0,0-6,6v6.3a6,6,0,0,0,12,0v-6.3A6,6,0,0,0,59,94.1Z"/><path d="M59,119.391a6,6,0,0,0-6,6v58a6,6,0,0,0,12,0v-58A6,6,0,0,0,59,119.391Z"/><path d="M457.271,267.7A31.02,31.02,0,0,0,433.8,272.18L372,312.766V87.625C372,67.775,355.687,52,335.836,52H298V33.375a6,6,0,0,0-12,0V52H235V33.375a6,6,0,0,0-12,0V52H173V33.375a6,6,0,0,0-12,0V52H110V33.375a6,6,0,0,0-12,0V52H65.836A35.582,35.582,0,0,0,30,87.625v361C30,468.476,45.985,485,65.836,485h270C355.687,485,372,468.476,372,448.625V387.46l96.086-63.1A31.217,31.217,0,0,0,457.271,267.7ZM291.661,89.574a10.61,10.61,0,1,1-10.61,10.61A10.621,10.621,0,0,1,291.661,89.574Zm-62.523,0a10.61,10.61,0,1,1-10.611,10.61A10.622,10.622,0,0,1,229.138,89.574Zm-62.525,0A10.61,10.61,0,1,1,156,100.184,10.622,10.622,0,0,1,166.613,89.574Zm-62.523,0a10.61,10.61,0,1,1-10.611,10.61A10.622,10.622,0,0,1,104.09,89.574ZM360,448.625A24.491,24.491,0,0,1,335.836,473h-270C52.6,473,42,461.859,42,448.625v-361A23.57,23.57,0,0,1,65.836,64H98V78.388c-9,2.636-16.565,11.406-16.565,21.8a22.605,22.605,0,1,0,45.21,0A22.185,22.185,0,0,0,110,78.388V64h51V78.388a22.324,22.324,0,0,0-16.8,21.8,22.634,22.634,0,0,0,45.268,0A23.2,23.2,0,0,0,173,78.388V64h50V78.388c-9,2.636-16.541,11.406-16.541,21.8a22.6,22.6,0,1,0,45.2,0A22.2,22.2,0,0,0,235,78.388V64h51V78.388a22.3,22.3,0,0,0-16.779,21.8,22.631,22.631,0,0,0,45.262,0c0-10.39-7.483-19.16-16.483-21.8V64h37.836C349.069,64,360,74.392,360,87.625V320.646l-22.537,14.8a6,6,0,0,0-1.439,8.7h0a6,6,0,0,0,8.026,1.327l89.218-58.589,7.257,11.046L289.368,397.2l-7.259-11.047,28.4-18.647a6,6,0,0,0-6.587-10.031L270.533,379.4c-.061.041-.117.092-.179.135-.152.108-.3.216-.446.338-.048.04-.09.086-.135.128H178.2a6,6,0,0,0,0,12h84.81l-4.249,8.028c-.185-.017-.371-.028-.561-.028h-80a6,6,0,0,0,0,12h74.225l-6.937,13.105a6,6,0,0,0,5.3,8.807c.053,0,.106,0,.158,0l50.707-1.329c.123,0,.244-.024.366-.034s.261-.017.391-.037c.159-.024.313-.065.467-.1.114-.027.229-.046.343-.08a5.949,5.949,0,0,0,.767-.289c.061-.027.118-.065.178-.1a6,6,0,0,0,.566-.314c.02-.013.041-.02.059-.033L360,395.341Zm-69.439-27.757-29.667.777,13.462-25.438Zm12.655-2.593-.461-.7-6.8-10.344,151.157-99.265,7.258,11.045Zm161.013-106.12-20.756-31.589a19.363,19.363,0,0,1,16.073.484,17.179,17.179,0,0,1,3.973,2.649A19.275,19.275,0,0,1,464.229,312.155Z"/></svg>
